<?xml version="1.0" encoding="utf-8"?>
<!-- Generator: Adobe Illustrator 27.9.0, SVG Export Plug-In . SVG Version: 6.00 Build 0)  -->
<svg version="1.1" id="Layer_1" xmlns="http://www.w3.org/2000/svg" xmlns:xlink="http://www.w3.org/1999/xlink" x="0px" y="0px"
	 viewBox="0 0 104.1 23.4" style="enable-background:new 0 0 104.1 23.4;" xml:space="preserve">
<style type="text/css">
	.st0{fill-rule:evenodd;clip-rule:evenodd;fill:#F9BB00;}
	.st1{fill-rule:evenodd;clip-rule:evenodd;fill:#4E5059;}
	.st2{fill:#F9BB00;}
</style>
<path class="st0" d="M45.1,19.5l2.8-3.4c1.9,1.6,4,2.6,6.4,2.6c1.9,0,3.1-0.8,3.1-2v-0.1c0-1.2-0.7-1.8-4.3-2.7
	c-4.3-1.1-7.1-2.3-7.1-6.6V7.2c0-3.9,3.1-6.5,7.5-6.5c3.1,0,5.8,1,8,2.7L59.1,7c-1.9-1.3-3.8-2.1-5.6-2.1c-1.8,0-2.8,0.8-2.8,1.9
	v0.1c0,1.4,0.9,1.9,4.6,2.8c4.3,1.1,6.8,2.7,6.8,6.5v0.1c0,4.3-3.2,6.7-7.9,6.7C51,23,47.7,21.8,45.1,19.5"/>
<path class="st1" d="M64.1,19.5l2.8-3.4c1.9,1.6,4,2.6,6.4,2.6c1.9,0,3.1-0.8,3.1-2v-0.1c0-1.2-0.7-1.8-4.3-2.7
	c-4.3-1.1-7.1-2.3-7.1-6.6V7.2c0-3.9,3.1-6.5,7.5-6.5c3.1,0,5.8,1,8,2.7L78,7c-1.9-1.3-3.8-2.1-5.6-2.1s-2.8,0.8-2.8,1.9v0.1
	c0,1.4,0.9,1.9,4.6,2.8c4.3,1.1,6.8,2.7,6.8,6.5v0.1c0,4.3-3.2,6.7-7.9,6.7C70,23,66.7,21.8,64.1,19.5"/>
<path class="st1" d="M82.7,11.9L82.7,11.9c0-6.2,4.8-11.2,11.5-11.2c3.9,0,6.3,1,8.6,2.9l-3,3.6C98.1,5.8,96.6,5,94.1,5
	c-3.5,0-6.3,3-6.3,6.7v0.1c0,3.9,2.8,6.8,6.6,6.8c1.8,0,3.3-0.4,4.5-1.3v-3.1h-4.8v-4.1h9.5v9.3c-2.3,2-5.4,3.6-9.4,3.6
	C87.4,23,82.7,18.3,82.7,11.9"/>
<g>
	<path class="st2" d="M31.9,0.7c-6.5,0-11.3,5-11.3,11.1v0.1c0,6.1,4.7,11,11.2,11C38.3,23,43.1,18,43.1,11.8v-0.1
		C43.1,5.7,38.4,0.7,31.9,0.7z M38.2,11.9L38.2,11.9c0,3.7-2.6,6.7-6.4,6.7s-6.4-3.1-6.4-6.8v-0.1C25.4,8,28,5,31.8,5
		C35.6,5.1,38.2,8.2,38.2,11.9L38.2,11.9z"/>
</g>
<path class="st2" d="M18.1,5.1c-0.4-0.9-0.9-1.6-1.6-2.3C15.8,2.1,15,1.6,14,1.2s-2-0.6-3.1-0.6H2.7H1.3H0.5v0.7v1.2V21v1.3v0.6h0.7
	h1.4h0.5h1.4h0.8v-0.6l0,0v-7.4h5.6c1.1,0,2.2-0.2,3.1-0.6s1.8-0.9,2.4-1.6c0.7-0.7,1.2-1.4,1.6-2.2s0.6-1.7,0.6-2.6
	C18.7,6.9,18.5,6,18.1,5.1z M13.5,9c-0.2,0.4-0.4,0.7-0.8,1c-0.3,0.3-0.7,0.5-1.1,0.7S10.7,11,10.2,11H5.4V4.4h4.8
	c0.5,0,1,0.1,1.4,0.3c0.4,0.2,0.8,0.4,1.1,0.7c0.3,0.3,0.6,0.7,0.7,1c0.2,0.4,0.3,0.8,0.3,1.2C13.8,8.2,13.7,8.6,13.5,9z"/>
</svg>
