<?xml version="1.0" encoding="utf-8"?>
<!-- Generator: Adobe Illustrator 27.8.1, SVG Export Plug-In . SVG Version: 6.00 Build 0)  -->
<svg version="1.1" id="Layer_1" xmlns="http://www.w3.org/2000/svg" xmlns:xlink="http://www.w3.org/1999/xlink" x="0px" y="0px"
	 viewBox="0 0 103.1 23" style="enable-background:new 0 0 103.1 23;" xml:space="preserve">
<style type="text/css">
	.st0{fill-rule:evenodd;clip-rule:evenodd;}
</style>
<path class="st0" d="M44.6,19.2l2.8-3.4c1.9,1.6,4,2.6,6.4,2.6c1.9,0,3.1-0.8,3.1-2v-0.1c0-1.2-0.7-1.8-4.3-2.7
	c-4.3-1.1-7.1-2.3-7.1-6.6V6.9c0-3.9,3.1-6.5,7.5-6.5c3.1,0,5.8,1,8,2.7l-2.4,3.6c-1.9-1.3-3.8-2.1-5.6-2.1s-2.8,0.8-2.8,1.9v0.1
	c0,1.4,0.9,1.9,4.6,2.8c4.3,1.1,6.8,2.7,6.8,6.5V16c0,4.3-3.2,6.7-7.9,6.7C50.5,22.7,47.2,21.5,44.6,19.2"/>
<path class="st0" d="M63.6,19.2l2.8-3.4c1.9,1.6,4,2.6,6.4,2.6c1.9,0,3.1-0.8,3.1-2v-0.1c0-1.2-0.7-1.8-4.3-2.7
	c-4.3-1.1-7.1-2.3-7.1-6.6V6.9c0-3.9,3.1-6.5,7.5-6.5c3.1,0,5.8,1,8,2.7l-2.5,3.6c-1.9-1.3-3.8-2.1-5.6-2.1s-2.8,0.8-2.8,1.9v0.1
	c0,1.4,0.9,1.9,4.6,2.8c4.3,1.1,6.8,2.7,6.8,6.5V16c0,4.3-3.2,6.7-7.9,6.7C69.5,22.7,66.2,21.5,63.6,19.2"/>
<path class="st0" d="M82.2,11.6L82.2,11.6c0-6.2,4.8-11.2,11.5-11.2c3.9,0,6.3,1,8.6,2.9l-3,3.6c-1.7-1.4-3.2-2.2-5.7-2.2
	c-3.5,0-6.3,3-6.3,6.7v0.1c0,3.9,2.8,6.8,6.6,6.8c1.8,0,3.3-0.4,4.5-1.3v-3.1h-4.8V9.8h9.5v9.3c-2.3,2-5.4,3.6-9.4,3.6
	C86.9,22.7,82.2,18,82.2,11.6"/>
<g>
	<path d="M31.4,0.4c-6.5,0-11.3,5-11.3,11.1v0.1c0,6.1,4.7,11,11.2,11c6.5,0.1,11.3-4.9,11.3-11.1v-0.1C42.6,5.4,37.9,0.4,31.4,0.4z
		 M37.7,11.6L37.7,11.6c0,3.7-2.6,6.7-6.4,6.7s-6.4-3.1-6.4-6.8v-0.1c0-3.7,2.6-6.7,6.4-6.7C35.1,4.8,37.7,7.9,37.7,11.6L37.7,11.6z
		"/>
</g>
<path d="M17.6,4.8c-0.4-0.9-0.9-1.6-1.6-2.3c-0.7-0.7-1.5-1.2-2.5-1.6s-2-0.6-3.1-0.6H2.2H0.8H0V1v1.2v18.5V22v0.6h0.7h1.4h0.5H4
	h0.8V22l0,0v-7.4h5.6c1.1,0,2.2-0.2,3.1-0.6c0.9-0.4,1.8-0.9,2.4-1.6c0.7-0.7,1.2-1.4,1.6-2.2c0.4-0.8,0.6-1.7,0.6-2.6
	C18.2,6.6,18,5.7,17.6,4.8z M13,8.7c-0.2,0.4-0.4,0.7-0.8,1c-0.3,0.3-0.7,0.5-1.1,0.7c-0.4,0.2-0.9,0.3-1.4,0.3H4.9V4.1h4.8
	c0.5,0,1,0.1,1.4,0.3c0.4,0.2,0.8,0.4,1.1,0.7c0.3,0.3,0.6,0.7,0.7,1c0.2,0.4,0.3,0.8,0.3,1.2C13.3,7.9,13.2,8.3,13,8.7z"/>
</svg>
